<svg viewBox="0 0 128 128" xmlns="http://www.w3.org/2000/svg"><g><path d="m102.427 43.155-2.337-2.336a3.808 3.808 0 0 1 -.826-4.149l1.263-3.053a3.808 3.808 0 0 0 -2.063-4.975l-3.036-1.256a3.807 3.807 0 0 1 -2.352-3.519v-3.286a3.808 3.808 0 0 0 -3.809-3.808h-3.3a3.81 3.81 0 0 1 -3.518-2.35l-1.269-3.052a3.808 3.808 0 0 0 -4.98-2.059l-3.032 1.258a3.807 3.807 0 0 1 -4.152-.825l-2.323-2.323a3.809 3.809 0 0 0 -5.386 0l-2.336 2.336a3.808 3.808 0 0 1 -4.149.826l-3.053-1.263a3.809 3.809 0 0 0 -4.975 2.063l-1.257 3.036a3.808 3.808 0 0 1 -3.519 2.353h-3.285a3.808 3.808 0 0 0 -3.809 3.808v3.3a3.808 3.808 0 0 1 -2.349 3.519l-3.053 1.266a3.809 3.809 0 0 0 -2.059 4.976l1.259 3.035a3.81 3.81 0 0 1 -.825 4.152l-2.324 2.323a3.809 3.809 0 0 0 0 5.386l2.337 2.337a3.807 3.807 0 0 1 .826 4.149l-1.263 3.056a3.808 3.808 0 0 0 2.063 4.975l3.036 1.256a3.807 3.807 0 0 1 2.352 3.519v3.286a3.808 3.808 0 0 0 3.809 3.808h3.3a3.809 3.809 0 0 1 3.518 2.35l1.265 3.052a3.808 3.808 0 0 0 4.984 2.059l3.035-1.259a3.811 3.811 0 0 1 4.152.825l2.323 2.324a3.809 3.809 0 0 0 5.386 0l2.336-2.336a3.81 3.81 0 0 1 4.149-.827l3.053 1.264a3.809 3.809 0 0 0 4.975-2.063l1.257-3.037a3.809 3.809 0 0 1 3.519-2.352h3.285a3.808 3.808 0 0 0 3.809-3.808v-3.3a3.808 3.808 0 0 1 2.349-3.518l3.053-1.266a3.809 3.809 0 0 0 2.059-4.976l-1.259-3.036a3.809 3.809 0 0 1 .825-4.151l2.324-2.324a3.809 3.809 0 0 0 -.003-5.39z" fill="#f9cc4e"/><circle cx="64" cy="45.848" fill="#4ec4b5" r="29.146"/><path d="m59.795 41.643 4.205-12.614 4.205 12.614h12.615l-8.41 8.41 4.205 12.615-12.615-8.41-12.615 8.41 4.205-12.615-8.41-8.41z" fill="#f9cc4e"/><path d="m87.579 74.924h-1.6a3.809 3.809 0 0 0 -3.519 2.352l-1.257 3.037a3.809 3.809 0 0 1 -4.975 2.063l-3.053-1.264a3.81 3.81 0 0 0 -4.149.827l-2.336 2.336a3.809 3.809 0 0 1 -5.386 0l-2.323-2.324a3.811 3.811 0 0 0 -4.152-.825l-3.029 1.259a3.808 3.808 0 0 1 -4.977-2.059l-1.265-3.052a3.809 3.809 0 0 0 -3.518-2.35h-1.618l-17.417 35.386 17.255-5.872 5.872 17.256 17.868-36.304 17.868 36.3 5.872-17.256 17.26 5.876z" fill="#f95050"/></g></svg>